<svg xmlns="http://www.w3.org/2000/svg" xmlns:xlink="http://www.w3.org/1999/xlink" version="1.1" width="1000" height="1000" viewBox="0 0 1000 1000" xml:space="preserve">
<desc>Created with Fabric.js 3.5.0</desc>
<defs>
</defs>
<rect x="0" y="0" width="100%" height="100%" fill="#ffffff"></rect>
<g transform="matrix(1.9951 0 0 1.9951 498.775 498.775)" id="390464"  >
<g style="" vector-effect="non-scaling-stroke"   >
		<g transform="matrix(1 0 0 1 0 81.5)" id="Rectangle-82"  >
<rect style="stroke: none; stroke-width: 1; stroke-dasharray: none; stroke-linecap: butt; stroke-dashoffset: 0; stroke-linejoin: miter; stroke-miterlimit: 4; is-custom-font: none; font-file-url: none; fill: none; fill-rule: evenodd; opacity: 1;"  x="-210" y="-22.5" rx="0" ry="0" width="420" height="45" />
</g>
		<g transform="matrix(1 0 0 1 -209 46.469)" style="" id="headerText"  >
		<text xml:space="preserve" font-family="Dosis" font-size="40" font-style="normal" font-weight="800" style="stroke: none; stroke-width: 1; stroke-dasharray: none; stroke-linecap: butt; stroke-dashoffset: 0; stroke-linejoin: miter; stroke-miterlimit: 4; is-custom-font: none; font-file-url: none; fill: rgb(0,0,0); fill-rule: evenodd; opacity: 1; white-space: pre;" ></text>
</g>
		<g transform="matrix(1 0 0 1 0 128)" id="Rectangle"  >
<rect style="stroke: none; stroke-width: 1; stroke-dasharray: none; stroke-linecap: butt; stroke-dashoffset: 0; stroke-linejoin: miter; stroke-miterlimit: 4; is-custom-font: none; font-file-url: none; fill: none; fill-rule: evenodd; opacity: 1;"  x="-210" y="-16" rx="0" ry="0" width="420" height="32" />
</g>
		<g transform="matrix(1 0 0 1 -209 104.1681)" style="" id="captionText"  >
		<text xml:space="preserve" font-family="Dosis" font-size="25" font-style="normal" font-weight="500" style="stroke: none; stroke-width: 1; stroke-dasharray: none; stroke-linecap: butt; stroke-dashoffset: 0; stroke-linejoin: miter; stroke-miterlimit: 4; is-custom-font: none; font-file-url: none; fill: rgb(0,0,0); fill-rule: evenodd; opacity: 1; white-space: pre;" ></text>
</g>
		<g transform="matrix(1 0 0 1 -10.9975 -51.444)" id="shape.secondary"  >
<polygon style="stroke: none; stroke-width: 1; stroke-dasharray: none; stroke-linecap: butt; stroke-dashoffset: 0; stroke-linejoin: miter; stroke-miterlimit: 4; is-custom-font: none; font-file-url: none; fill: rgb(100,95,206); fill-opacity: 0.02; fill-rule: evenodd; opacity: 1;"  points="-4.9135,9.787 -4.9135,-9.787 4.9135,0.001 " />
</g>
		<g transform="matrix(1 0 0 1 0.285 -14.632)" id="shape.secondary"  >
<polygon style="stroke: none; stroke-width: 1; stroke-dasharray: none; stroke-linecap: butt; stroke-dashoffset: 0; stroke-linejoin: miter; stroke-miterlimit: 4; is-custom-font: none; font-file-url: none; fill: rgb(100,95,206); fill-opacity: 0.6; fill-rule: evenodd; opacity: 1;"  points="15.627,41.632 -15.627,41.632 -15.627,-10.507 15.627,-41.632 " />
</g>
		<g transform="matrix(1 0 0 1 42.828 -32.3915)" id="shape.secondary"  >
<polygon style="stroke: none; stroke-width: 1; stroke-dasharray: none; stroke-linecap: butt; stroke-dashoffset: 0; stroke-linejoin: miter; stroke-miterlimit: 4; is-custom-font: none; font-file-url: none; fill: rgb(100,95,206); fill-opacity: 0.8; fill-rule: evenodd; opacity: 1;"  points="15.627,59.3915 -15.627,59.3915 -15.627,-28.2675 15.627,-59.3915 " />
</g>
		<g transform="matrix(1 0 0 1 85.373 -57)" id="shape.secondary"  >
<polygon style="stroke: none; stroke-width: 1; stroke-dasharray: none; stroke-linecap: butt; stroke-dashoffset: 0; stroke-linejoin: miter; stroke-miterlimit: 4; is-custom-font: none; font-file-url: none; fill: rgb(100,95,206); fill-rule: evenodd; opacity: 1;"  points="15.627,84 -15.627,84 -15.627,-52.877 15.627,-84 " />
</g>
		<g transform="matrix(1 0 0 1 -47.166 6.5525)" id="shape.secondary"  >
<polygon style="stroke: none; stroke-width: 1; stroke-dasharray: none; stroke-linecap: butt; stroke-dashoffset: 0; stroke-linejoin: miter; stroke-miterlimit: 4; is-custom-font: none; font-file-url: none; fill: rgb(100,95,206); fill-opacity: 0.4; fill-rule: evenodd; opacity: 1;"  points="20.533,-20.4475 20.533,20.4475 -20.533,20.4475 " />
</g>
		<g transform="matrix(1 0 0 1 0 -126.5415)" id="shape.secondary"  >
<polygon style="stroke: none; stroke-width: 1; stroke-dasharray: none; stroke-linecap: butt; stroke-dashoffset: 0; stroke-linejoin: miter; stroke-miterlimit: 4; is-custom-font: none; font-file-url: none; fill: rgb(100,95,206); fill-opacity: 0.5; fill-rule: evenodd; opacity: 1;"  points="29.037,-14.4585 0,14.4585 -29.037,-14.4585 " />
</g>
		<g transform="matrix(1 0 0 1 0 -126.5415)" id="shape.primary"  >
<polygon style="stroke: none; stroke-width: 1; stroke-dasharray: none; stroke-linecap: butt; stroke-dashoffset: 0; stroke-linejoin: miter; stroke-miterlimit: 4; is-custom-font: none; font-file-url: none; fill: rgb(64,53,111); fill-opacity: 0.5; fill-rule: evenodd; opacity: 1;"  points="29.037,-14.4585 0,14.4585 -29.037,-14.4585 " />
</g>
		<g transform="matrix(1 0 0 1 -42.828 -49.261)" id="shape.primary"  >
<polygon style="stroke: none; stroke-width: 1; stroke-dasharray: none; stroke-linecap: butt; stroke-dashoffset: 0; stroke-linejoin: miter; stroke-miterlimit: 4; is-custom-font: none; font-file-url: none; fill: rgb(64,53,111); fill-opacity: 0.8; fill-rule: evenodd; opacity: 1;"  points="-15.627,48.731 -15.627,-48.731 15.627,-17.607 15.627,17.607 " />
</g>
		<g transform="matrix(1 0 0 1 -10.9975 -51.444)" id="shape.primary"  >
<polygon style="stroke: none; stroke-width: 1; stroke-dasharray: none; stroke-linecap: butt; stroke-dashoffset: 0; stroke-linejoin: miter; stroke-miterlimit: 4; is-custom-font: none; font-file-url: none; fill: rgb(64,53,111); fill-opacity: 0.6; fill-rule: evenodd; opacity: 1;"  points="-4.9135,9.787 -4.9135,-9.787 4.9135,0.001 " />
</g>
		<g transform="matrix(1 0 0 1 -85.373 -57)" id="shape.primary"  >
<polygon style="stroke: none; stroke-width: 1; stroke-dasharray: none; stroke-linecap: butt; stroke-dashoffset: 0; stroke-linejoin: miter; stroke-miterlimit: 4; is-custom-font: none; font-file-url: none; fill: rgb(64,53,111); fill-rule: evenodd; opacity: 1;"  points="5.507,84 -15.627,84 -15.627,-84 15.627,-52.877 15.627,73.923 " />
</g>
		<g transform="matrix(1 0 0 1 -47.166 6.5525)" id="shape.primary"  >
<polygon style="stroke: none; stroke-width: 1; stroke-dasharray: none; stroke-linecap: butt; stroke-dashoffset: 0; stroke-linejoin: miter; stroke-miterlimit: 4; is-custom-font: none; font-file-url: none; fill: rgb(64,53,111); fill-opacity: 0.6; fill-rule: evenodd; opacity: 1;"  points="20.533,-20.4475 20.533,20.4475 -20.533,20.4475 " />
</g>
</g>
</g>
</svg>