<svg xmlns="http://www.w3.org/2000/svg" xmlns:xlink="http://www.w3.org/1999/xlink" version="1.1" width="1000" height="1000" viewBox="0 0 1000 1000" xml:space="preserve">
<desc>Created with Fabric.js 3.5.0</desc>
<defs>
</defs>
<g transform="matrix(1.8289 0 0 1.8289 199.0915 639.4518)" style="" id="headerText"  >
		<text xml:space="preserve" font-family="Dosis" font-size="40" font-style="normal" font-weight="800" style="stroke: rgb(0,0,0); stroke-width: 1; stroke-dasharray: none; stroke-linecap: butt; stroke-dashoffset: 0; stroke-linejoin: miter; stroke-miterlimit: 4; is-custom-font: none; font-file-url: none; fill: rgb(0,0,0); fill-rule: evenodd; opacity: 1; white-space: pre;" ></text>
</g>
<g transform="matrix(1.8289 0 0 1.8289 199.0915 744.9799)" style="" id="captionText"  >
		<text xml:space="preserve" font-family="Dosis" font-size="25" font-style="normal" font-weight="500" style="stroke: rgb(0,0,0); stroke-width: 1; stroke-dasharray: none; stroke-linecap: butt; stroke-dashoffset: 0; stroke-linejoin: miter; stroke-miterlimit: 4; is-custom-font: none; font-file-url: none; fill: rgb(0,0,0); fill-rule: evenodd; opacity: 1; white-space: pre;" ></text>
</g>
<g transform="matrix(1 0 0 1 500 500)" id="781065"  >
<g style=""   >
		<g transform="matrix(1.8289 0 0 1.8289 -20.1138 10.1612)" id="shape.secondary"  >
<polygon style="stroke: rgb(0,0,0); stroke-width: 1; stroke-dasharray: none; stroke-linecap: butt; stroke-dashoffset: 0; stroke-linejoin: miter; stroke-miterlimit: 4; is-custom-font: none; font-file-url: none; fill: rgb(100,95,206); fill-opacity: 0.02; fill-rule: evenodd; opacity: 1;"  points="-4.9135,9.787 -4.9135,-9.787 4.9135,0.001 " />
</g>
		<g transform="matrix(1.8289 0 0 1.8289 0.5208 77.4868)" id="shape.secondary"  >
<polygon style="stroke: rgb(0,0,0); stroke-width: 1; stroke-dasharray: none; stroke-linecap: butt; stroke-dashoffset: 0; stroke-linejoin: miter; stroke-miterlimit: 4; is-custom-font: none; font-file-url: none; fill: rgb(100,95,206); fill-opacity: 0.6; fill-rule: evenodd; opacity: 1;"  points="15.627,41.632 -15.627,41.632 -15.627,-10.507 15.627,-41.632 " />
</g>
		<g transform="matrix(1.8289 0 0 1.8289 78.3291 45.0054)" id="shape.secondary"  >
<polygon style="stroke: rgb(0,0,0); stroke-width: 1; stroke-dasharray: none; stroke-linecap: butt; stroke-dashoffset: 0; stroke-linejoin: miter; stroke-miterlimit: 4; is-custom-font: none; font-file-url: none; fill: rgb(100,95,206); fill-opacity: 0.8; fill-rule: evenodd; opacity: 1;"  points="15.627,59.3915 -15.627,59.3915 -15.627,-28.2675 15.627,-59.3915 " />
</g>
		<g transform="matrix(1.8289 0 0 1.8289 156.141 -0.0029)" id="shape.secondary"  >
<polygon style="stroke: rgb(0,0,0); stroke-width: 1; stroke-dasharray: none; stroke-linecap: butt; stroke-dashoffset: 0; stroke-linejoin: miter; stroke-miterlimit: 4; is-custom-font: none; font-file-url: none; fill: rgb(100,95,206); fill-rule: evenodd; opacity: 1;"  points="15.627,84 -15.627,84 -15.627,-52.877 15.627,-84 " />
</g>
		<g transform="matrix(1.8289 0 0 1.8289 -86.2642 116.2326)" id="shape.secondary"  >
<polygon style="stroke: rgb(0,0,0); stroke-width: 1; stroke-dasharray: none; stroke-linecap: butt; stroke-dashoffset: 0; stroke-linejoin: miter; stroke-miterlimit: 4; is-custom-font: none; font-file-url: none; fill: rgb(100,95,206); fill-opacity: 0.4; fill-rule: evenodd; opacity: 1;"  points="20.533,-20.4475 20.533,20.4475 -20.533,20.4475 " />
</g>
		<g transform="matrix(1.8289 0 0 1.8289 -0.001 -127.1873)" id="shape.secondary"  >
<polygon style="stroke: rgb(0,0,0); stroke-width: 1; stroke-dasharray: none; stroke-linecap: butt; stroke-dashoffset: 0; stroke-linejoin: miter; stroke-miterlimit: 4; is-custom-font: none; font-file-url: none; fill: rgb(100,95,206); fill-opacity: 0.5; fill-rule: evenodd; opacity: 1;"  points="29.037,-14.4585 0,14.4585 -29.037,-14.4585 " />
</g>
		<g transform="matrix(1.8289 0 0 1.8289 -0.001 -127.1873)" id="shape.primary"  >
<polygon style="stroke: rgb(0,0,0); stroke-width: 1; stroke-dasharray: none; stroke-linecap: butt; stroke-dashoffset: 0; stroke-linejoin: miter; stroke-miterlimit: 4; is-custom-font: none; font-file-url: none; fill: rgb(64,53,111); fill-opacity: 0.5; fill-rule: evenodd; opacity: 1;"  points="29.037,-14.4585 0,14.4585 -29.037,-14.4585 " />
</g>
		<g transform="matrix(1.8289 0 0 1.8289 -78.3301 14.1525)" id="shape.primary"  >
<polygon style="stroke: rgb(0,0,0); stroke-width: 1; stroke-dasharray: none; stroke-linecap: butt; stroke-dashoffset: 0; stroke-linejoin: miter; stroke-miterlimit: 4; is-custom-font: none; font-file-url: none; fill: rgb(64,53,111); fill-opacity: 0.8; fill-rule: evenodd; opacity: 1;"  points="-15.627,48.731 -15.627,-48.731 15.627,-17.607 15.627,17.607 " />
</g>
		<g transform="matrix(1.8289 0 0 1.8289 -20.1138 10.1612)" id="shape.primary"  >
<polygon style="stroke: rgb(0,0,0); stroke-width: 1; stroke-dasharray: none; stroke-linecap: butt; stroke-dashoffset: 0; stroke-linejoin: miter; stroke-miterlimit: 4; is-custom-font: none; font-file-url: none; fill: rgb(64,53,111); fill-opacity: 0.6; fill-rule: evenodd; opacity: 1;"  points="-4.9135,9.787 -4.9135,-9.787 4.9135,0.001 " />
</g>
		<g transform="matrix(1.8289 0 0 1.8289 -156.1421 -0.0029)" id="shape.primary"  >
<polygon style="stroke: rgb(0,0,0); stroke-width: 1; stroke-dasharray: none; stroke-linecap: butt; stroke-dashoffset: 0; stroke-linejoin: miter; stroke-miterlimit: 4; is-custom-font: none; font-file-url: none; fill: rgb(64,53,111); fill-rule: evenodd; opacity: 1;"  points="5.507,84 -15.627,84 -15.627,-84 15.627,-52.877 15.627,73.923 " />
</g>
		<g transform="matrix(1.8289 0 0 1.8289 -86.2642 116.2326)" id="shape.primary"  >
<polygon style="stroke: rgb(0,0,0); stroke-width: 1; stroke-dasharray: none; stroke-linecap: butt; stroke-dashoffset: 0; stroke-linejoin: miter; stroke-miterlimit: 4; is-custom-font: none; font-file-url: none; fill: rgb(64,53,111); fill-opacity: 0.6; fill-rule: evenodd; opacity: 1;"  points="20.533,-20.4475 20.533,20.4475 -20.533,20.4475 " />
</g>
</g>
</g>
</svg>